<?xml version="1.0" standalone="no"?>
<!DOCTYPE svg PUBLIC "-//W3C//DTD SVG 20010904//EN"
 "http://www.w3.org/TR/2001/REC-SVG-20010904/DTD/svg10.dtd">
<svg version="1.0" xmlns="http://www.w3.org/2000/svg"
 width="1276.000000pt" height="1280.000000pt" viewBox="0 0 1276.000000 1280.000000"
 preserveAspectRatio="xMidYMid meet">
<metadata>
Created by potrace 1.15, written by Peter Selinger 2001-2017
</metadata>
<g transform="translate(0.000000,1280.000000) scale(0.100000,-0.100000)"
fill="#61DAFB" stroke="#61DAFB">
<path d="M2945 12784 c-27 -7 -84 -14 -125 -15 -95 -2 -185 -15 -230 -35 -33
-14 -43 -13 -130 6 -137 31 -266 37 -365 15 -104 -22 -253 -46 -285 -46 -14 0
-60 0 -102 1 -64 2 -87 -3 -135 -25 -32 -14 -64 -32 -73 -39 -9 -7 -100 -22
-220 -35 -537 -58 -807 -115 -939 -201 -91 -60 -161 -137 -219 -245 -124 -230
-141 -287 -102 -350 28 -45 109 -108 124 -96 19 14 66 22 66 11 0 -20 49 -60
74 -60 16 0 30 -8 37 -22 6 -13 21 -34 34 -48 12 -14 34 -46 48 -71 35 -62 80
-99 120 -99 38 0 102 28 160 69 64 45 173 65 316 58 171 -8 261 -45 404 -163
34 -28 72 -56 84 -63 16 -8 29 -33 43 -81 20 -68 35 -85 46 -55 10 25 19 17
38 -35 10 -27 22 -47 27 -44 5 3 9 34 9 69 0 118 28 74 45 -72 4 -29 10 -53
15 -53 10 0 20 37 20 78 0 17 4 32 9 32 10 0 20 -80 22 -160 1 -73 15 -41 25
55 8 87 17 66 34 -83 7 -56 16 -105 21 -108 5 -3 9 28 9 68 0 40 3 98 7 128
l7 55 12 -85 c7 -47 13 -106 14 -132 0 -58 14 -69 35 -27 16 30 17 31 31 11 7
-11 24 -22 38 -26 28 -7 31 -26 41 -211 3 -60 8 -132 12 -160 7 -61 17 -44 33
63 7 39 14 72 16 72 9 0 31 -68 38 -115 4 -28 25 -104 46 -170 42 -135 146
-484 156 -530 4 -16 14 -41 22 -53 11 -17 18 -72 24 -200 10 -193 18 -254 34
-259 6 -2 15 7 21 19 l11 23 11 -28 c6 -15 26 -103 45 -195 92 -445 122 -548
199 -687 86 -156 166 -263 311 -414 147 -154 251 -288 294 -381 21 -45 27 -51
33 -35 4 11 8 41 8 66 1 25 4 48 7 52 13 12 64 -24 93 -66 40 -58 86 -98 161
-138 57 -30 66 -40 118 -128 l57 -96 3 38 c4 43 9 44 61 17 63 -32 127 -105
176 -199 25 -49 71 -122 101 -162 31 -41 90 -141 131 -224 119 -238 253 -424
332 -465 39 -19 41 -22 90 -172 210 -643 419 -1384 476 -1695 24 -130 26 -156
25 -459 0 -377 5 -418 79 -569 27 -55 54 -118 61 -140 6 -22 15 -132 20 -245
4 -113 13 -245 19 -295 20 -168 32 -389 38 -695 7 -350 -1 -449 -50 -615 -28
-97 -32 -124 -32 -230 0 -97 3 -126 18 -154 l19 -33 -44 -72 c-40 -66 -48 -74
-118 -109 -41 -20 -103 -46 -137 -57 -82 -25 -116 -43 -186 -98 -61 -48 -127
-141 -127 -179 0 -26 27 -43 69 -43 26 0 30 -4 33 -32 5 -54 37 -63 211 -61
81 2 147 0 147 -3 0 -3 -20 -25 -44 -49 -50 -51 -96 -124 -96 -155 0 -22 33
-40 75 -40 18 0 24 -6 27 -27 2 -21 13 -33 43 -48 35 -18 59 -20 200 -19 251
1 561 58 714 130 93 43 171 120 171 168 0 47 -24 120 -76 231 -62 132 -75 199
-56 279 17 74 10 300 -13 416 -34 171 -45 1396 -15 1600 6 41 22 114 36 161
80 281 71 618 -26 909 -26 78 -40 307 -47 760 -7 446 3 615 47 846 17 87 35
205 40 262 5 56 14 110 19 120 9 15 12 13 21 -15 20 -56 30 -26 30 88 l0 109
60 0 c33 0 87 7 120 16 55 16 61 16 84 0 33 -21 48 -20 96 4 52 27 107 25 172
-5 61 -28 114 -31 184 -10 27 8 67 15 89 15 29 0 46 6 59 21 16 19 25 21 72
16 49 -5 54 -4 54 14 0 31 29 34 94 12 59 -21 60 -21 84 -2 30 23 86 25 137 3
36 -15 37 -14 59 9 16 17 38 27 72 31 27 3 108 13 179 22 571 69 1281 306
1923 639 81 42 162 91 180 108 l32 31 -14 -47 c-8 -26 -11 -47 -8 -47 4 0 40
51 79 113 l73 112 0 -50 0 -50 21 25 20 25 -6 -45 c-16 -113 -50 -253 -80
-335 -19 -50 -37 -109 -41 -132 -15 -94 46 -362 131 -581 55 -139 64 -155 260
-437 311 -450 356 -548 405 -883 26 -182 42 -491 30 -569 -30 -182 -220 -936
-346 -1373 -74 -256 -164 -517 -191 -557 -174 -254 -237 -369 -254 -468 -20
-114 -98 -238 -157 -251 -15 -3 -44 -10 -64 -15 -77 -19 -358 -272 -403 -362
-42 -84 -33 -107 41 -107 26 0 34 -4 34 -18 0 -51 72 -72 253 -72 193 0 711
53 785 81 31 12 28 28 -15 84 -92 121 -147 301 -111 368 6 12 32 45 58 74 91
100 137 206 146 338 5 60 35 181 121 485 239 843 399 1336 481 1484 16 28 36
71 45 96 8 25 44 124 78 220 140 396 214 562 287 643 29 32 52 64 52 72 0 56
71 -60 125 -203 75 -201 135 -468 135 -599 0 -128 -36 -320 -160 -858 -17 -71
-43 -188 -60 -260 -83 -364 -208 -779 -318 -1057 -53 -132 -82 -189 -139 -269
-18 -26 -54 -90 -78 -142 -42 -87 -55 -132 -70 -238 -3 -19 -20 -60 -38 -89
-29 -50 -41 -59 -137 -108 -297 -152 -462 -278 -519 -395 -39 -81 -23 -117 53
-117 33 0 36 -2 36 -29 0 -65 129 -86 494 -78 235 4 266 7 314 26 80 32 158
85 192 132 35 49 38 87 15 176 -28 105 -45 197 -45 241 0 40 5 47 78 120 108
107 162 226 162 355 0 37 38 184 150 587 146 520 265 896 324 1023 41 87 71
168 269 717 112 309 138 375 198 489 60 115 74 193 65 351 -9 164 -25 212
-156 475 -217 435 -384 906 -469 1320 -62 304 -75 549 -42 810 11 94 26 224
32 290 15 152 15 625 0 729 -6 44 -9 81 -7 83 10 10 139 -286 179 -412 21 -63
69 -349 96 -566 24 -190 27 -414 7 -561 -7 -54 -9 -98 -5 -98 3 0 17 28 30 62
12 34 24 57 26 51 2 -6 -5 -67 -16 -136 l-21 -125 20 -144 c11 -79 25 -233 30
-343 12 -251 44 -438 111 -643 25 -75 42 -75 22 0 -24 95 -27 205 -8 364 9 82
21 155 25 163 5 10 15 -3 33 -40 21 -45 25 -49 26 -28 1 15 -11 78 -25 140
-25 108 -26 124 -20 289 4 96 11 198 16 225 6 28 13 180 17 339 l6 288 40 -93
c21 -52 42 -96 45 -99 2 -3 2 15 -1 40 -11 80 -75 275 -138 417 -54 120 -127
330 -199 568 -35 114 -151 340 -257 500 -66 99 -107 172 -121 215 -56 176
-139 336 -232 450 -34 41 -95 118 -137 170 -257 323 -571 535 -906 615 -134
32 -715 233 -987 343 -185 74 -437 205 -590 306 -118 78 -258 165 -371 230
-19 11 -56 26 -83 33 -27 7 -56 22 -63 33 -10 14 -21 18 -42 14 -22 -5 -33 1
-59 30 -33 37 -59 45 -81 24 -10 -11 -17 -7 -35 15 l-23 29 -6 -32 c-9 -42
-26 -35 -57 23 -14 26 -27 47 -30 47 -3 0 -13 -14 -22 -30 -24 -41 -36 -38
-49 15 -6 25 -16 48 -21 51 -5 4 -27 -11 -48 -31 -53 -52 -101 -54 -158 -5
-23 19 -44 47 -48 63 -4 15 -10 27 -15 27 -5 0 -9 -12 -9 -27 -1 -91 -33 -86
-51 8 -6 33 -15 62 -19 64 -4 3 -13 -17 -20 -43 -17 -62 -19 -65 -37 -51 -17
15 -33 -2 -33 -37 0 -12 -6 -27 -14 -33 -11 -9 -20 -4 -44 26 -22 27 -31 33
-32 21 0 -20 -15 -24 -25 -8 -10 17 -25 11 -25 -10 0 -25 -17 -33 -173 -85
-73 -24 -153 -52 -179 -63 -56 -25 -217 -121 -353 -212 -162 -108 -331 -204
-516 -294 -201 -98 -310 -136 -383 -136 -41 0 -69 -9 -131 -40 -91 -46 -106
-49 -102 -18 4 42 -36 34 -85 -18 -44 -46 -47 -47 -136 -60 -129 -19 -167 -35
-341 -139 -268 -160 -381 -247 -536 -415 -142 -152 -181 -210 -134 -195 l20 7
-21 -41 c-13 -27 -40 -54 -75 -77 -34 -23 -67 -56 -85 -85 -21 -34 -38 -50
-57 -54 -81 -16 -123 -28 -168 -50 -43 -20 -60 -23 -121 -18 -40 3 -79 1 -89
-5 -14 -7 -29 -3 -64 19 -24 16 -56 29 -69 29 -14 0 -41 15 -63 35 -34 30 -55
40 -81 36 -3 0 -23 21 -44 47 -22 26 -46 54 -55 62 -9 8 -22 31 -29 50 -7 19
-28 49 -47 65 -31 27 -35 37 -38 87 -2 34 -15 83 -33 125 -16 37 -35 93 -42
123 -16 65 -83 250 -110 300 -30 57 -114 357 -143 518 -7 33 1 40 21 20 9 -9
12 -9 12 1 0 31 -23 158 -32 174 -6 12 -6 23 2 31 8 10 0 32 -31 90 -40 75
-45 106 -14 106 21 0 19 5 -16 66 -31 55 -31 74 0 74 32 0 30 11 -7 49 -31 30
-102 155 -102 177 0 4 9 -1 20 -11 25 -22 25 -26 -1 93 -11 53 -32 117 -45
142 l-25 45 36 -40 37 -40 -7 30 c-3 17 -17 56 -30 87 l-23 58 24 -6 c28 -7
32 7 7 27 -29 24 -93 111 -88 119 2 4 25 10 51 13 67 7 73 20 22 50 -47 27
-85 64 -75 73 3 3 15 1 26 -6 30 -16 26 2 -9 35 -38 36 -38 45 2 45 19 0 41 9
55 21 18 18 25 20 37 10 9 -8 16 -8 20 -2 9 14 -34 41 -67 41 -24 0 -27 3 -18
14 6 8 22 11 37 8 20 -4 25 -1 22 9 -3 9 -21 14 -53 14 -42 0 -50 4 -73 33
-27 36 -20 39 41 18 20 -8 37 -10 37 -6 0 13 -77 107 -101 124 l-22 15 33 53
c99 156 133 219 155 290 48 150 31 176 -90 142z m2770 -10387 c21 -176 62
-739 56 -768 -5 -27 -9 -13 -19 71 -18 148 -40 420 -47 585 -4 77 -9 148 -12
159 -3 11 -1 16 5 12 6 -3 13 -30 17 -59z"/>
</g>
</svg>
