<?xml version="1.0" standalone="no"?>
<!DOCTYPE svg PUBLIC "-//W3C//DTD SVG 20010904//EN"
 "http://www.w3.org/TR/2001/REC-SVG-20010904/DTD/svg10.dtd">
<svg version="1.0" xmlns="http://www.w3.org/2000/svg"
 width="1024.000000pt" height="1024.000000pt" viewBox="0 0 1024.000000 1024.000000"
 preserveAspectRatio="xMidYMid meet">
<metadata>
Created by potrace 1.11, written by Peter Selinger 2001-2013
</metadata>
<g transform="translate(0.000000,1024.000000) scale(0.100000,-0.100000)"
fill="#000000" stroke="none">
<path d="M0 5120 l0 -5120 5120 0 5120 0 0 5120 0 5120 -5120 0 -5120 0 0
-5120z m7011 3776 c8 -17 7 -43 -5 -101 -25 -122 -37 -456 -35 -1040 1 -573
-5 -688 -52 -913 -26 -129 -91 -318 -147 -432 -40 -82 -51 -95 -74 -98 -22 -3
-29 2 -34 22 -3 15 -1 277 5 584 6 306 11 702 11 879 l0 322 39 154 c44 173
127 426 169 519 32 70 76 128 98 128 8 0 19 -11 25 -24z m-817 -188 c2 -24 12
-108 22 -188 9 -80 22 -194 30 -255 18 -146 17 -315 -1 -392 -26 -112 -123
-391 -168 -487 -85 -180 -202 -328 -307 -389 -51 -30 -147 -57 -200 -57 -128
0 -243 95 -285 234 -4 15 -20 -3 -67 -80 -126 -202 -256 -282 -438 -272 -99 6
-158 37 -189 100 -27 56 -51 152 -51 202 l0 40 -128 -130 c-139 -141 -284
-269 -405 -358 -99 -73 -238 -157 -251 -153 -6 2 -12 13 -14 24 -2 15 22 47
81 109 46 49 178 189 294 311 286 302 409 464 533 702 76 147 99 176 121 154
10 -10 4 -45 -26 -158 -44 -168 -41 -200 20 -254 46 -40 103 -54 205 -49 202
9 340 138 424 395 46 140 81 138 81 -5 0 -77 3 -92 28 -135 59 -99 171 -135
325 -103 48 9 110 30 137 44 l50 27 -1 145 c-1 96 -9 188 -23 273 -23 137 -20
192 15 317 16 56 138 379 155 412 16 29 27 21 33 -24z m-3152 -1746 c-4 -861
-5 -845 50 -955 63 -126 152 -177 309 -177 50 0 119 7 153 16 120 31 276 132
445 288 47 43 104 87 126 97 52 24 122 24 215 -1 100 -26 144 -25 194 4 52 30
92 86 153 211 47 98 87 140 119 128 19 -7 18 -23 -12 -120 -21 -70 -24 -87
-12 -94 33 -21 157 1 211 38 63 44 133 147 178 263 44 114 69 146 100 130 56
-31 -21 -304 -127 -454 -70 -97 -169 -209 -238 -267 l-70 -59 -73 0 -74 0 -50
-47 c-27 -25 -81 -84 -120 -129 -43 -51 -82 -86 -101 -93 -50 -18 -119 -13
-209 15 -101 31 -250 42 -289 22 -13 -7 -62 -65 -108 -128 -208 -286 -333
-390 -501 -421 -88 -15 -181 -1 -254 39 -108 58 -214 212 -253 365 -9 37 -20
64 -25 62 -4 -3 -22 -30 -38 -59 -42 -72 -87 -112 -274 -240 l-159 -108 55
-23 c93 -37 149 -75 223 -150 86 -87 134 -176 136 -252 2 -57 -19 -99 -128
-264 -137 -205 -229 -288 -386 -348 -43 -17 -182 -60 -308 -96 -291 -83 -321
-94 -427 -164 -176 -115 -266 -255 -338 -522 -51 -190 -65 -401 -80 -1184 -11
-592 -34 -981 -64 -1057 -11 -30 -32 -36 -49 -15 -25 30 -43 151 -52 347 -16
367 -32 1083 -26 1180 17 241 70 669 107 847 66 327 276 661 538 859 91 68
240 149 331 180 60 20 84 34 57 34 -26 0 -40 37 -32 89 14 95 78 289 129 396
96 196 167 281 456 545 137 125 229 253 262 365 17 59 29 236 38 590 5 198 14
396 19 440 20 168 236 713 270 680 3 -4 4 -365 3 -803z m3087 -157 c70 -39
116 -92 162 -189 174 -372 137 -774 -121 -1285 -76 -152 -96 -174 -202 -225
-95 -46 -335 -147 -501 -212 -168 -65 -223 -44 -135 52 24 26 95 90 158 142
151 126 332 289 508 459 l142 138 0 51 c0 35 -6 59 -18 75 l-19 22 -49 -23
c-71 -35 -187 -34 -267 3 -73 33 -150 111 -171 173 -30 88 -19 154 80 483 77
258 104 304 204 351 64 30 158 23 229 -15z m972 -167 c1 -7 1 -337 0 -733 -1
-396 3 -772 8 -836 7 -103 12 -125 44 -190 40 -83 91 -140 151 -172 32 -16 64
-22 141 -25 248 -10 406 85 579 346 36 55 74 103 85 107 27 8 70 -11 82 -38 6
-13 23 -31 39 -40 59 -36 207 -59 255 -41 9 4 68 86 132 183 210 320 337 469
482 566 92 61 163 85 248 85 57 0 76 -5 120 -30 112 -64 168 -213 145 -381
-14 -98 -69 -264 -124 -374 -104 -210 -335 -428 -571 -540 -245 -116 -517
-144 -740 -75 -71 22 -142 75 -177 133 l-17 27 -38 -62 c-219 -357 -482 -526
-725 -464 -145 37 -278 176 -346 362 l-27 75 -21 -38 c-126 -221 -217 -394
-212 -402 4 -6 71 -61 149 -124 162 -129 201 -170 251 -266 59 -113 78 -195
83 -371 5 -139 2 -170 -21 -293 -76 -394 -230 -771 -429 -1049 -324 -453 -741
-690 -1165 -665 -167 10 -287 55 -397 149 -160 136 -260 334 -311 613 -26 137
-26 573 -1 750 9 65 17 122 17 126 0 3 -44 9 -97 12 -305 18 -499 180 -565
471 -12 53 -25 96 -29 96 -12 0 -45 -41 -140 -170 -51 -69 -127 -160 -168
-202 l-77 -78 -62 0 c-57 0 -319 32 -509 63 l-83 14 -25 -38 c-78 -118 -219
-244 -340 -305 -165 -82 -282 -90 -550 -38 -79 15 -170 25 -235 27 -95 1 -111
-1 -163 -25 -140 -65 -316 -222 -456 -406 -66 -87 -87 -104 -102 -81 -17 28
-8 72 37 177 123 284 243 478 389 627 252 257 496 334 839 266 154 -31 246
-26 366 18 187 69 302 182 345 342 16 60 48 109 70 109 8 0 22 -11 31 -25 22
-34 13 -105 -32 -244 -18 -58 -34 -109 -34 -113 0 -13 54 -9 202 17 185 32
315 65 414 106 63 26 92 45 140 94 112 114 109 99 129 620 26 698 25 690 72
825 99 282 185 475 213 475 12 0 15 -17 13 -95 -11 -579 -13 -1364 -5 -1505 9
-147 14 -180 37 -237 53 -134 152 -208 285 -216 54 -3 86 0 113 12 l38 16 -24
32 c-55 73 -73 148 -52 209 28 79 187 378 338 639 77 132 176 233 274 282 62
30 75 33 158 33 75 0 98 -4 140 -25 138 -68 185 -209 97 -292 -38 -37 -103
-53 -139 -34 -88 44 -244 73 -307 55 -81 -22 -266 -246 -266 -321 0 -39 75
-133 146 -184 119 -85 251 -126 332 -105 78 22 232 160 368 333 96 121 120
141 141 112 30 -40 25 -49 -175 -384 -211 -352 -292 -467 -426 -608 -126 -132
-298 -251 -421 -292 l-64 -21 -7 -67 c-9 -86 10 -331 36 -444 46 -210 149
-370 301 -468 82 -53 149 -77 255 -91 310 -41 667 103 944 381 185 184 304
390 351 604 l20 88 -25 42 c-67 112 -237 276 -439 424 -145 105 -161 130 -162
247 0 71 4 89 35 155 42 91 157 304 268 496 119 207 176 327 210 439 l31 100
21 579 21 579 44 121 c71 195 152 391 179 435 26 41 45 52 47 29z m-3164
-4069 c143 -102 233 -176 233 -190 0 -18 -332 -414 -351 -417 -22 -4 -110 55
-245 164 l-102 83 -149 -182 c-95 -115 -156 -181 -166 -181 -10 1 -43 19 -74
40 -73 51 -293 234 -293 244 0 23 335 420 353 420 7 0 84 -54 172 -120 88 -66
163 -120 167 -120 3 0 46 48 94 108 137 167 205 242 220 242 8 0 71 -41 141
-91z"/>
<path d="M9152 5501 c-128 -44 -286 -189 -412 -377 -38 -58 -70 -109 -70 -115
0 -22 260 17 380 57 165 56 391 207 398 267 5 41 -33 111 -76 139 -78 51 -134
59 -220 29z"/>
</g>
</svg>
